<svg xmlns="http://www.w3.org/2000/svg" xmlns:xlink="http://www.w3.org/1999/xlink" viewBox="0 0 143.07 233.23">
<defs>
<style>.cls-1{fill:url(#linear-gradient);}</style>
<linearGradient id="linear-gradient" x1="135.05" y1="0.5" x2="12.7" y2="224.17" gradientUnits="userSpaceOnUse">
<stop offset="0" stop-color="#dec699"/><stop offset="1" stop-color="#b8a379"/>
</linearGradient></defs>
<g id="Camada_2" data-name="Camada 2">
<g id="graphics">
<path class="cls-1" d="M93.47,27.14H49a22,22,0,0,0-21.95,22V70l116,65.13V49.21A49.27,49.27,0,0,0,93.86,0H49.21A49.27,49.27,0,0,0,0,49.21V84.44l129.84,72.14V184a36,36,0,0,1-36,36H49.21a36,36,0,0,1-36-36V121.88L101,171v13c0,1.46-.33,8.73-6.92,8.73H49.6A8.73,8.73,0,0,1,40.88,184V153.34l-13.23-7.87V184A22,22,0,0,0,49.6,206H94.07c11.67,0,20.14-9.23,20.14-21.95v-20.8L0,99.33V184a49.27,49.27,0,0,0,49.21,49.21H93.86A49.27,49.27,0,0,0,143.07,184V148.79L13.23,76.66V49.21a36,36,0,0,1,36-36H93.86a36,36,0,0,1,36,36v63.36L40.28,62.29V49.09A8.74,8.74,0,0,1,49,40.36H93.47a8.74,8.74,0,0,1,8.72,8.73V80.53l13.23,7.87V49.09A22,22,0,0,0,93.47,27.14Z"/></g></g>
</svg>